# xmcd
#
# Track frame offsets:
#	150
#	17037
#	31725
#	47767
#	65527
#	82672
#	95845
#	108405
#	116095
#	129215
#	141492
#	156472
#	170300
#
# Disc length: 2490
#
# Revision: 2
# Processed by: cddbd v1.5.1PL0 Copyright (c) Steve Scherf et al.
# Submitted via: audiograbber 1.80
# Normalized: r1:DSETVAR1
#
DISCID=a909b80d
DTITLE=Various Artist - Contigo Aprendí CD2
DYEAR=1900
DGENRE=
TTITLE0=Lucho Gatica - Tu Me Acostumbraste
TTITLE1=Frank Sinatra - As Time Goes By
TTITLE2=Eydie Gorme - Somos
TTITLE3=Juan Camacho - Jurame
TTITLE4=Armando Manzanero - Adoro
TTITLE5=Los Panchos - Momentos
TTITLE6=Los Panchos - Llevatela
TTITLE7=Lorenzo Gonzalez - Niña
TTITLE8=Olga Guillot - Se Me Olvidó Otra Vez
TTITLE9=Los Panchos - Contigo Aprendí
TTITLE10=Armando Manzanero - Somos Novios
TTITLE11=Matt Monro - Alguien Cantó
TTITLE12=Simone - Contigo Aprendí
EXTD=
EXTT0=
EXTT1=
EXTT2=
EXTT3=
EXTT4=
EXTT5=
EXTT6=
EXTT7=
EXTT8=
EXTT9=
EXTT10=
EXTT11=
EXTT12=
PLAYORDER=
